<svg xmlns="http://www.w3.org/2000/svg" width="400" height="400" viewBox="0 0 400 400">
  <rect width="400" height="400" rx="40" fill="#3178c6"/>
  <path fill="#fff" d="M223 200.2v-32.7H105.6v32.7h39.2v111.9h39.1V200.2H223z"/>
  <path fill="#fff" d="M243.6 312.9c6.3 3.3 13.8 5.7 22.4 7.4 8.6 1.6 17.7 2.4 27.2 2.4 9.3 0 18.1-.9 26.5-2.7 8.3-1.8 15.6-4.7 21.9-8.8 6.3-4.1 11.3-9.5 14.9-16.1 3.7-6.7 5.5-14.9 5.5-24.6 0-7.1-1.1-13.3-3.2-18.6-2.1-5.4-5.2-10.1-9.2-14.3-4-4.2-8.8-7.9-14.4-11.2-5.6-3.3-11.9-6.4-18.9-9.3-5.1-2.1-9.7-4.2-13.8-6.2-4.1-2-7.5-4.1-10.4-6.2-2.8-2.1-5-4.4-6.6-6.7-1.5-2.4-2.3-5.1-2.3-8.1 0-2.8.7-5.2 2.1-7.4 1.4-2.2 3.3-4.1 5.9-5.6 2.5-1.6 5.6-2.8 9.3-3.6 3.7-.9 7.7-1.3 12.2-1.3 3.3 0 6.7.2 10.3.7 3.6.5 7.3 1.3 11 2.3 3.7 1 7.3 2.3 10.8 3.9 3.5 1.6 6.7 3.4 9.7 5.5v-36.4c-5.9-2.3-12.4-3.9-19.4-5-7-1.1-15-1.6-24.1-1.6-9.2 0-18 1-26.2 3-8.3 2-15.6 5.1-21.9 9.3-6.3 4.2-11.3 9.6-14.9 16.2-3.7 6.6-5.5 14.5-5.5 23.7 0 11.7 3.4 21.6 10.1 29.9 6.7 8.2 17 15.2 30.7 20.9 5.4 2.2 10.4 4.4 15 6.5 4.6 2.1 8.6 4.3 12 6.6 3.3 2.3 6 4.7 7.9 7.4 1.9 2.7 2.9 5.7 2.9 9.1 0 2.6-.6 5-1.9 7.2-1.3 2.2-3.2 4.1-5.7 5.7-2.6 1.6-5.8 2.8-9.6 3.7-3.9.9-8.3 1.3-13.5 1.3-8.8 0-17.5-1.5-26.1-4.6-8.6-3.1-16.6-7.7-23.9-13.9v38.9z"/>
</svg>
